#N canvas 527 140 995 688 12;
#X obj 100 59 *~;
#X obj 140 62 tgl 15 0 empty empty empty 17 7 0 10 -262144 -1 -1 0
1;
#X obj 262 15 adc~ 1;
#X obj 334 128 route 0 1 2 3 4 5, f 37;
#X obj 101 192 unpack 0 0 0 0;
#X floatatom 101 277 5 0 0 0 - - -;
#X floatatom 153 284 5 0 0 0 - - -;
#X floatatom 164 237 5 0 0 0 - - -;
#X floatatom 196 217 5 0 0 0 - - -;
#X obj 239 188 unpack 0 0 0 0;
#X floatatom 239 273 5 0 0 0 - - -;
#X floatatom 270 253 5 0 0 0 - - -;
#X floatatom 302 233 5 0 0 0 - - -;
#X floatatom 334 213 5 0 0 0 - - -;
#X obj 382 185 unpack 0 0 0 0;
#X floatatom 382 270 5 0 0 0 - - -;
#X floatatom 430 261 5 0 0 0 - - -;
#X floatatom 445 230 5 0 0 0 - - -;
#X floatatom 477 210 5 0 0 0 - - -;
#X obj 522 185 unpack 0 0 0 0;
#X floatatom 522 270 5 0 0 0 - - -;
#X floatatom 554 245 5 0 0 0 - - -;
#X floatatom 585 230 5 0 0 0 - - -;
#X floatatom 617 210 5 0 0 0 - - -;
#X obj 669 185 unpack 0 0 0 0;
#X floatatom 669 270 5 0 0 0 - - -;
#X floatatom 700 250 5 0 0 0 - - -;
#X floatatom 732 230 5 0 0 0 - - -;
#X floatatom 764 210 5 0 0 0 - - -;
#X obj 804 182 unpack 0 0 0 0;
#X floatatom 804 267 5 0 0 0 - - -;
#X floatatom 835 247 5 0 0 0 - - -;
#X floatatom 867 227 5 0 0 0 - - -;
#X floatatom 899 207 5 0 0 0 - - -;
#X obj 162 421 osc~;
#X obj 162 445 *~;
#X obj 209 510 dac~ 3 4;
#X obj 351 376 osc~;
#X obj 361 422 *~;
#X obj 538 353 osc~;
#X obj 548 399 *~;
#X obj 646 353 osc~;
#X obj 656 399 *~;
#N canvas 0 25 647 414 send2sc 0;
#X obj 113 171 netsend -u -b;
#X msg 235 144 connect localhost 57120;
#X obj 101 55 inlet;
#X obj 195 49 inlet;
#X obj 348 104 loadbang;
#X obj 71 121 oscformat freq6;
#X obj 200 101 oscformat amp6;
#X connect 1 0 0 0;
#X connect 2 0 5 0;
#X connect 3 0 6 0;
#X connect 4 0 1 0;
#X connect 5 0 0 0;
#X connect 6 0 0 0;
#X restore 821 606 pd send2sc;
#N canvas 0 25 647 414 send2sc 0;
#X obj 113 171 netsend -u -b;
#X msg 235 144 connect localhost 57120;
#X obj 101 55 inlet;
#X obj 195 49 inlet;
#X obj 348 104 loadbang;
#X obj 71 121 oscformat freq5;
#X obj 200 101 oscformat amp5;
#X connect 1 0 0 0;
#X connect 2 0 5 0;
#X connect 3 0 6 0;
#X connect 4 0 1 0;
#X connect 5 0 0 0;
#X connect 6 0 0 0;
#X restore 703 608 pd send2sc;
#N canvas 0 25 647 414 send2sc 0;
#X obj 113 171 netsend -u -b;
#X msg 235 144 connect localhost 57120;
#X obj 101 55 inlet;
#X obj 195 49 inlet;
#X obj 348 104 loadbang;
#X obj 71 121 oscformat freq4;
#X obj 200 101 oscformat amp4;
#X connect 1 0 0 0;
#X connect 2 0 5 0;
#X connect 3 0 6 0;
#X connect 4 0 1 0;
#X connect 5 0 0 0;
#X connect 6 0 0 0;
#X restore 598 608 pd send2sc;
#N canvas 0 25 647 414 send2sc 0;
#X obj 113 171 netsend -u -b;
#X msg 235 144 connect localhost 57120;
#X obj 101 55 inlet;
#X obj 195 49 inlet;
#X obj 348 104 loadbang;
#X obj 71 121 oscformat freq3;
#X obj 200 101 oscformat amp3;
#X connect 1 0 0 0;
#X connect 2 0 5 0;
#X connect 3 0 6 0;
#X connect 4 0 1 0;
#X connect 5 0 0 0;
#X connect 6 0 0 0;
#X restore 442 612 pd send2sc;
#N canvas 0 25 647 414 send2sc 0;
#X obj 113 171 netsend -u -b;
#X msg 235 144 connect localhost 57120;
#X obj 101 55 inlet;
#X obj 195 49 inlet;
#X obj 348 104 loadbang;
#X obj 71 121 oscformat freq2;
#X obj 200 101 oscformat amp2;
#X connect 1 0 0 0;
#X connect 2 0 5 0;
#X connect 3 0 6 0;
#X connect 4 0 1 0;
#X connect 5 0 0 0;
#X connect 6 0 0 0;
#X restore 343 611 pd send2sc;
#N canvas 0 25 647 414 send2sc 0;
#X obj 113 171 netsend -u -b;
#X msg 235 144 connect localhost 57120;
#X obj 101 55 inlet;
#X obj 195 49 inlet;
#X obj 348 104 loadbang;
#X obj 71 121 oscformat freq1;
#X obj 200 101 oscformat amp1;
#X connect 1 0 0 0;
#X connect 2 0 5 0;
#X connect 3 0 6 0;
#X connect 4 0 1 0;
#X connect 5 0 0 0;
#X connect 6 0 0 0;
#X restore 215 609 pd send2sc;
#X obj 542 66 dac~;
#X obj 101 86 sigmund~ -npts 16384 -hop 8192 -minpower 60 -npeak 6
tracks;
#X text 550 89 !! RATHER THAN TRACKS TRY PEAKS AS WELL !!;
#X connect 0 0 50 0;
#X connect 1 0 0 1;
#X connect 2 0 0 0;
#X connect 2 0 49 0;
#X connect 2 0 49 1;
#X connect 3 0 4 0;
#X connect 3 1 9 0;
#X connect 3 2 14 0;
#X connect 3 3 19 0;
#X connect 3 4 24 0;
#X connect 3 5 29 0;
#X connect 4 0 5 0;
#X connect 4 1 6 0;
#X connect 4 2 7 0;
#X connect 4 3 8 0;
#X connect 5 0 34 0;
#X connect 5 0 48 0;
#X connect 6 0 35 1;
#X connect 6 0 48 1;
#X connect 9 0 10 0;
#X connect 9 1 11 0;
#X connect 9 2 12 0;
#X connect 9 3 13 0;
#X connect 10 0 37 0;
#X connect 10 0 47 0;
#X connect 11 0 38 1;
#X connect 11 0 47 1;
#X connect 14 0 15 0;
#X connect 14 1 16 0;
#X connect 14 2 17 0;
#X connect 14 3 18 0;
#X connect 15 0 39 0;
#X connect 15 0 46 0;
#X connect 16 0 40 1;
#X connect 16 0 46 1;
#X connect 19 0 20 0;
#X connect 19 1 21 0;
#X connect 19 2 22 0;
#X connect 19 3 23 0;
#X connect 20 0 41 0;
#X connect 20 0 45 0;
#X connect 21 0 42 1;
#X connect 21 0 45 1;
#X connect 24 0 25 0;
#X connect 24 1 26 0;
#X connect 24 2 27 0;
#X connect 24 3 28 0;
#X connect 25 0 44 0;
#X connect 26 0 44 1;
#X connect 29 0 30 0;
#X connect 29 1 31 0;
#X connect 29 2 32 0;
#X connect 29 3 33 0;
#X connect 30 0 43 0;
#X connect 31 0 43 1;
#X connect 34 0 35 0;
#X connect 35 0 36 0;
#X connect 35 0 36 1;
#X connect 37 0 38 0;
#X connect 38 0 36 1;
#X connect 39 0 40 0;
#X connect 40 0 36 0;
#X connect 41 0 42 0;
#X connect 42 0 36 1;
#X connect 50 0 3 0;
